:FULLY-SPECIFIED
:FORCE-ALL-JOINTS-BE-3DOF
:DEGREES
259
root 9.71038 16.7182 -0.282263 8.25177 -7.54074 1.04112
lfemur -31.7308 9.04226 -27.4202
ltibia 36.0312 0 0
lfoot -12.2797 6.87945 0
ltoes -0.172547 0 0
rfemur -8.05715 -1.83185 15.9294
rtibia 61.1487 0 0
rfoot 5.45119 -8.96497 0
rtoes -15.2345 0 0
lowerback -5.66687 1.15268 -2.40447
upperback -1.95228 1.64242 1.4682
thorax 1.05435 0.829121 2.9658
lowerneck -20.4285 -4.80215 -12.8317
upperneck 18.713 -5.79014 13.2294
head 10.1199 -2.12888 6.02016
lclavicle -3.19546e-14 -2.0276e-14 0
lhumerus -36.703 -8.59092 89.2943
lradius 22.6391 0 0
lwrist -2.00751 0 0
lhand -9.41773 -22.3452 0
lfingers 7.12502 0 0
lthumb 16.5443 6.96948 0
rclavicle -3.19546e-14 -2.0276e-14 0
rhumerus -45.9701 9.67144 -86.016
rradius 39.7113 0 0
rwrist -21.7486 0 0
rhand -31.9309 -24.6003 0
rfingers 7.12502 0 0
rthumb -5.18201 -54.5169 0
260
root 9.73034 16.7423 -0.153324 8.12967 -7.45488 1.09757
lfemur -30.8007 8.98962 -27.5213
ltibia 35.5254 0 0
lfoot -12.5651 6.84267 0
ltoes -0.403039 0 0
rfemur -9.35056 -1.95451 15.9955
rtibia 62.4811 0 0
rfoot 3.99977 -9.74224 0
rtoes -14.9675 0 0
lowerback -5.62966 1.01438 -2.40231
upperback -1.88802 1.45657 1.52015
thorax 1.11146 0.734556 3.00705
lowerneck -20.4955 -4.72016 -12.6955
upperneck 18.87 -5.67889 13.0434
head 10.1605 -2.08617 5.94994
lclavicle -2.61469e-14 -1.26062e-14 0
lhumerus -35.9134 -9.10268 89.3542
lradius 22.8416 0 0
lwrist -1.63097 0 0
lhand -9.78123 -22.5429 0
lfingers 7.12502 0 0
lthumb 16.1942 6.79903 0
rclavicle -2.61469e-14 -1.26062e-14 0
rhumerus -45.9475 9.58073 -85.7721
rradius 39.9017 0 0
rwrist -21.7476 0 0
rhand -31.8835 -24.2952 0
rfingers 7.12502 0 0
rthumb -5.13622 -54.2132 0
261
root 9.7503 16.7665 -0.0243847 7.99947 -7.32454 1.1369
lfemur -29.8537 8.91294 -27.5928
ltibia 34.9963 0 0
lfoot -12.8339 6.77302 0
ltoes -0.574775 0 0
rfemur -10.5956 -2.06126 16.105
rtibia 63.5925 0 0
rfoot 2.43758 -10.296 0
rtoes -14.9005 0 0
lowerback -5.58316 0.864574 -2.39564
upperback -1.82046 1.25482 1.58167
thorax 1.16792 0.632041 3.05453
lowerneck -20.6052 -4.65365 -12.5264
upperneck 19.0675 -5.58836 12.8161
head 10.2246 -2.05381 5.85664
lclavicle -1.63565e-14 -5.74222e-16 0
lhumerus -35.1055 -9.73996 89.4417
lradius 23.0319 0 0
lwrist -1.18321 0 0
lhand -10.2417 -22.8447 0
lfingers 7.12502 0 0
lthumb 15.7507 6.53138 0
rclavicle -1.63565e-14 -5.74222e-16 0
rhumerus -45.9086 9.40093 -85.4813
rradius 40.1124 0 0
rwrist -21.7175 0 0
rhand -31.8843 -24.1473 0
rfingers 7.12502 0 0
rthumb -5.13706 -54.0656 0
262
root 9.77027 16.7906 0.104554 7.86103 -7.16257 1.16743
lfemur -28.8938 8.81468 -27.646
ltibia 34.4539 0 0
lfoot -13.0975 6.68988 0
ltoes -0.700502 0 0
rfemur -11.7999 -2.14767 16.2417
rtibia 64.5074 0 0
rfoot 0.799935 -10.6763 0
rtoes -14.9609 0 0
lowerback -5.53135 0.706831 -2.38841
upperback -1.74753 1.04228 1.64749
thorax 1.22785 0.524 3.10533
lowerneck -20.7433 -4.59626 -12.3426
upperneck 19.2908 -5.51013 12.5717
head 10.3044 -2.02706 5.75342
lclavicle -4.54951e-15 1.31695e-14 0
lhumerus -34.2756 -10.4433 89.5334
lradius 23.2081 0 0
lwrist -0.706435 0 0
lhand -10.749 -23.2013 0
lfingers 7.12502 0 0
lthumb 15.2621 6.21203 0
rclavicle -4.54951e-15 1.31695e-14 0
rhumerus -45.8586 9.16707 -85.165
rradius 40.335 0 0
rwrist -21.6766 0 0
rhand -31.8977 -24.0961 0
rfingers 7.12502 0 0
rthumb -5.15 -54.0144 0
263
root 9.79023 16.8148 0.233494 7.71418 -6.9818 1.19744
lfemur -27.9246 8.69731 -27.6924
ltibia 33.9082 0 0
lfoot -13.3671 6.61263 0
ltoes -0.792966 0 0
rfemur -12.9709 -2.2093 16.3897
rtibia 65.2507 0 0
rfoot -0.877846 -10.9333 0
rtoes -15.076 0 0
lowerback -5.47822 0.54472 -2.38461
upperback -1.66718 0.824047 1.71235
thorax 1.29539 0.412858 3.15656
lowerneck -20.8956 -4.54162 -12.1619
upperneck 19.5251 -5.4358 12.3347
head 10.3922 -2.0012 5.65342
lclavicle 7.30765e-15 2.59746e-14 0
lhumerus -33.4196 -11.1531 89.6059
lradius 23.3682 0 0
lwrist -0.242841 0 0
lhand -11.2527 -23.5637 0
lfingers 7.12502 0 0
lthumb 14.7769 5.88652 0
rclavicle 7.30765e-15 2.59746e-14 0
rhumerus -45.8029 8.9142 -84.8442
rradius 40.5615 0 0
rwrist -21.643 0 0
rhand -31.8879 -24.0809 0
rfingers 7.12502 0 0
rthumb -5.14051 -53.9996 0
264
root 9.81019 16.8389 0.362433 7.55879 -6.79506 1.23524
lfemur -26.9501 8.56329 -27.7435
ltibia 33.3691 0 0
lfoot -13.6539 6.56065 0
ltoes -0.864911 0 0
rfemur -14.1163 -2.24172 16.5326
rtibia 65.847 0 0
rfoot -2.56045 -11.1169 0
rtoes -15.1733 0 0
lowerback -5.42773 0.381808 -2.38821
upperback -1.57732 0.605242 1.771
thorax 1.37466 0.301037 3.20531
lowerneck -21.048 -4.48336 -12.0024
upperneck 19.7557 -5.35697 12.1294
head 10.4801 -1.97146 5.56981
lclavicle 1.72487e-14 3.51905e-14 0
lhumerus -32.5337 -11.8099 89.6356
lradius 23.51 0 0
lwrist 0.165375 0 0
lhand -11.7027 -23.8826 0
lfingers 7.12502 0 0
lthumb 14.3434 5.60036 0
rclavicle 1.72487e-14 3.51905e-14 0
rhumerus -45.7469 8.67737 -84.54
rradius 40.7833 0 0
rwrist -21.6349 0 0
rhand -31.819 -24.0414 0
rfingers 7.12502 0 0
rthumb -5.07407 -53.9614 0
265
root 9.83015 16.8631 0.491372 7.39469 -6.61519 1.28913
lfemur -25.9739 8.41507 -27.8105
ltibia 32.8467 0 0
lfoot -13.9692 6.55332 0
ltoes -0.929085 0 0
rfemur -15.2435 -2.24051 16.6546
rtibia 66.3209 0 0
rfoot -4.21255 -11.2773 0
rtoes -15.1803 0 0
lowerback -5.38387 0.221662 -2.40317
upperback -1.47591 0.390974 1.81817
thorax 1.46978 0.190964 3.24869
lowerneck -21.1861 -4.4151 -11.8819
upperneck 19.9679 -5.26521 11.9802
head 10.5604 -1.93313 5.51573
lclavicle 2.33075e-14 3.81667e-14 0
lhumerus -31.6139 -12.3542 89.5991
lradius 23.6317 0 0
lwrist 0.476016 0 0
lhand -12.0486 -24.1088 0
lfingers 7.12502 0 0
lthumb 14.0102 5.39909 0
rclavicle 2.33075e-14 3.81667e-14 0
rhumerus -45.6959 8.49161 -84.2736
rradius 40.9923 0 0
rwrist -21.6706 0 0
rhand -31.6555 -23.9169 0
rfingers 7.12502 0 0
rthumb -4.91614 -53.8398 0
